<?xml version="1.0" encoding="UTF-8"?>
<svg width="12px" height="12px" viewBox="0 0 12 12" version="1.1" xmlns="http://www.w3.org/2000/svg" xmlns:xlink="http://www.w3.org/1999/xlink">
    <!-- Generator: Sketch 46.2 (44496) - http://www.bohemiancoding.com/sketch -->
    <title>Page 1</title>
    <desc>Created with Sketch.</desc>
    <defs>
        <polygon id="path-1" points="11.7657951 2.07963728e-15 0 2.07963728e-15 0 11.7658244 11.7657951 11.7658244 11.7657951 0"></polygon>
    </defs>
    <g id="Page-1" stroke="none" stroke-width="1" fill="none" fill-rule="evenodd">
        <g id="3-TokoCash-Android--Detained-Balance" transform="translate(-93.000000, -174.000000)">
            <g id="Page-1" transform="translate(93.000000, 174.000000)">
                <mask id="mask-2" fill="white">
                    <use xlink:href="#path-1"></use>
                </mask>
                <g id="Clip-2"></g>
                <path d="M6.99506341,3.80484878 C6.81945366,3.95119024 6.61457561,4.03899512 6.38042927,4.03899512 C6.14628293,4.03899512 5.94140488,3.95119024 5.76579512,3.80484878 C5.59018537,3.65850732 5.50238049,3.45362927 5.50238049,3.24875122 C5.50238049,3.01460488 5.59018537,2.83899512 5.76579512,2.66338537 C5.94140488,2.5170439 6.14628293,2.42923902 6.38042927,2.42923902 C6.61457561,2.42923902 6.81945366,2.5170439 6.99506341,2.66338537 C7.17096585,2.80972683 7.25847805,3.01460488 7.25847805,3.24875122 C7.22920976,3.45362927 7.14140488,3.62923902 6.99506341,3.80484878 L6.99506341,3.80484878 Z M7.0536,8.98533659 C6.76091707,9.10240976 6.52677073,9.19021463 6.35116098,9.24875122 C6.17555122,9.3072878 5.97067317,9.3365561 5.73652683,9.3365561 C5.38530732,9.3365561 5.12189268,9.24875122 4.91701463,9.07314146 C4.71213659,8.89753171 4.62433171,8.69265366 4.62433171,8.42923902 C4.62433171,8.31216585 4.62433171,8.22436098 4.6536,8.1072878 C4.6536,7.99021463 4.68286829,7.87314146 4.71213659,7.75606829 L5.0633561,6.46826341 C5.09262439,6.35119024 5.12189268,6.23411707 5.15116098,6.1170439 C5.18042927,5.99997073 5.18042927,5.91216585 5.18042927,5.82436098 C5.18042927,5.64875122 5.15116098,5.56094634 5.0633561,5.47314146 C5.00481951,5.41460488 4.85847805,5.38533659 4.68286829,5.38533659 C4.59506341,5.38533659 4.47799024,5.38533659 4.39018537,5.41460488 C4.30238049,5.44387317 4.21457561,5.47314146 4.12677073,5.50240976 L4.21457561,5.12192195 C4.44872195,5.03411707 4.68286829,4.9463122 4.88774634,4.85850732 C5.09262439,4.79997073 5.29750244,4.74143415 5.50238049,4.74143415 C5.8536,4.74143415 6.11701463,4.82923902 6.32189268,5.00484878 C6.49750244,5.18045854 6.61457561,5.38533659 6.61457561,5.64875122 C6.61457561,5.7072878 6.61457561,5.79509268 6.5856,5.94143415 C6.5856,6.08777561 6.55603902,6.20484878 6.52677073,6.32192195 L6.17555122,7.60972683 C6.14628293,7.7268 6.11701463,7.84387317 6.08774634,7.96094634 C6.05847805,8.07801951 6.05847805,8.19509268 6.05847805,8.25362927 C6.05847805,8.42923902 6.08774634,8.5463122 6.17555122,8.60484878 C6.2633561,8.66338537 6.38042927,8.69265366 6.5856,8.69265366 C6.6731122,8.69265366 6.76091707,8.66338537 6.87828293,8.63411707 C6.99506341,8.60484878 7.08286829,8.57558049 7.11213659,8.5463122 L7.0536,8.98533659 Z M5.88286829,-2.92682927e-05 C2.6340878,-2.92682927e-05 -5.85365854e-05,2.63411707 -5.85365854e-05,5.88289756 C-5.85365854e-05,9.13167805 2.6340878,11.7658244 5.88286829,11.7658244 C9.13164878,11.7658244 11.7657951,9.13167805 11.7657951,5.88289756 C11.7657951,2.63411707 9.13164878,-2.92682927e-05 5.88286829,-2.92682927e-05 L5.88286829,-2.92682927e-05 Z" id="Fill-1" fill="#999999" mask="url(#mask-2)"></path>
            </g>
        </g>
    </g>
</svg>