<svg xmlns="http://www.w3.org/2000/svg" xmlns:xlink="http://www.w3.org/1999/xlink" width="12" height="13" viewBox="0 0 12 13">
    <defs>
        <path id="a" d="M0 .423h11.998v10.72H.001z"/>
    </defs>
    <g fill="none" fill-rule="evenodd">
        <g transform="translate(0 1.262)">
            <mask id="b" fill="#fff">
                <use xlink:href="#a"/>
            </mask>
            <path fill="#00AC47" d="M11.914 4.846C11.484 2.333 9.362.423 6.804.423c-2.328 0-4.293 1.582-4.953 3.76-.028.09.036.274.219.274h2.006c.33 0 .6.277.6.62a.606.606 0 0 1-.558.61H.839c-.015 0-.027.007-.042.009a.606.606 0 0 0-.558.61c0 .327.247.587.558.61h1.04v.008-.008h2.839c.015 0 .027.008.042.008.31.024.558.284.558.611a.608.608 0 0 1-.58.615c-.007 0-.013.004-.02.004H.6c-.008 0-.014-.004-.022-.004A.606.606 0 0 0 0 8.765a.61.61 0 0 0 .6.619h2.363c.949 1.079 2.315 1.76 3.84 1.76 2.869 0 5.195-2.4 5.195-5.36 0-.321-.033-.634-.085-.938" mask="url(#b)"/>
        </g>
        <path fill="#00AC47" d="M8.79 1.238H4.904a.61.61 0 0 1-.6-.619.61.61 0 0 1 .6-.619H8.79c.332 0 .6.277.6.619a.61.61 0 0 1-.6.62"/>
    </g>
</svg>
