<?xml version="1.0" encoding="UTF-8"?>
<svg width="16px" height="22px" viewBox="0 0 16 22" version="1.1" xmlns="http://www.w3.org/2000/svg" xmlns:xlink="http://www.w3.org/1999/xlink">
    <!-- Generator: Sketch 54.1 (76490) - https://sketchapp.com -->
    <title>02 System Icons / basic / tips</title>
    <desc>Created with Sketch.</desc>
    <defs>
        <path d="M12,22.5 C10.048,22.5 8.428,21.1 8.075,19.25 L15.925,19.25 C15.572,21.1 13.952,22.5 12,22.5 Z M12,1.5 C16.418,1.5 20,5.082 20,9.5 C20,12.459 18.389,15.037 16,16.421 L16,17.75 L15.925,17.75 L12.75,17.75 L12.75,17.462 L12.75,16.459 L12.75,15 L12.75,14.575 L12.75,12.111 C13.621,11.801 14.25,10.976 14.25,10 C14.25,8.76 13.24,7.75 12,7.75 C10.76,7.75 9.75,8.76 9.75,10 C9.75,10.976 10.379,11.801 11.25,12.111 L11.25,14.575 L11.25,15 L11.25,16.459 L11.25,17.462 L11.25,17.75 L8.075,17.75 L8,17.75 L8,16.421 C5.611,15.037 4,12.459 4,9.5 C4,5.082 7.582,1.5 12,1.5 Z M12,9 C12.551,9 13,9.449 13,10 C13,10.551 12.551,11 12,11 C11.449,11 11,10.551 11,10 C11,9.449 11.449,9 12,9 Z" id="path-1"></path>
    </defs>
    <g id="Page-1" stroke="none" stroke-width="1" fill="none" fill-rule="evenodd">
        <g id="1---VCL---Form" transform="translate(-217.000000, -264.000000)">
            <g id="02-System-Icons-/-basic-/-tips" transform="translate(213.000000, 263.000000)">
                <rect id="Rectangle" fill-rule="nonzero" x="0" y="0" width="24" height="24"></rect>
                <mask id="mask-2" fill="white">
                    <use xlink:href="#path-1"></use>
                </mask>
                <use id="Mask" fill="#9FA6B0" fill-rule="evenodd" xlink:href="#path-1"></use>
                <g id="Color-/-04-alternative-green" mask="url(#mask-2)" fill="#03AC0E" fill-rule="nonzero">
                    <g transform="translate(1.000000, 1.000000)" id="Rectangle">
                        <rect x="0" y="0" width="22" height="22"></rect>
                    </g>
                </g>
            </g>
        </g>
    </g>
</svg>