<svg xmlns="http://www.w3.org/2000/svg" xmlns:xlink="http://www.w3.org/1999/xlink" width="38" height="33" viewBox="0 0 38 33">
    <defs>
        <path id="a" d="M5.315.656L.016 6.533l2.89 2.63L8.21 3.279A1.957 1.957 0 0 0 8.075.52a1.943 1.943 0 0 0-1.31-.505 1.95 1.95 0 0 0-1.45.64z"/>
        <path id="c" d="M10.505 5.03s0-4.096-4.95-4.096c-1.98 0-4.95 2.048-4.95 6.145 0 8.192 9.9 11.265 9.9 11.265s9.9-3.073 9.9-11.266c0-4.096-2.969-6.144-4.95-6.144-4.95 0-4.95 4.095-4.95 4.095z"/>
    </defs>
    <g fill="none" fill-rule="evenodd">
        <g transform="translate(21.3 10.8)">
            <mask id="b" fill="#fff">
                <use xlink:href="#a"/>
            </mask>
            <path fill="#FEC100" d="M13.965 9.22l-14.41.71-.71-14.417 14.409-.71z" mask="url(#b)"/>
        </g>
        <g transform="translate(8.1 -.2)">
            <mask id="d" fill="#fff">
                <use xlink:href="#c"/>
            </mask>
            <path fill="#FF4F00" d="M-3.355 22.304h27.72v-25.33h-27.72z" mask="url(#d)"/>
        </g>
        <path fill="#FFE078" d="M33.397 14.655l-.007-.017a2.21 2.21 0 0 0-2.76-1.209l-8.944 3.129a3.243 3.243 0 0 1-2.142 0l-6.413-2.19a1.847 1.847 0 0 1-1.138-2.342 1.847 1.847 0 0 1 2.342-1.138l4.71 1.316c1.402.322 2.2 0 3.3-1.1 1.1-1.1.258-2.782-1.1-3.3 0 0-6.503-2.83-7.102-2.952-1.698-.348-4.157-.344-5.894.814L4.028 8.062l-2.643.842a1.55 1.55 0 0 0-.953 1.974l2.862 7.41a1.55 1.55 0 0 0 1.973.952l2.952-1.162c.205.017.41.05.61.116l9.116 3.644a5.29 5.29 0 0 0 3.7-.143l10.567-4.14a2.21 2.21 0 0 0 1.185-2.9"/>
        <path fill="#FFF" d="M36.258 12.485a2.022 2.022 0 0 0-.867-.436l-6.48-1.58-.002-.001-.432-.106a4.867 4.867 0 0 0-1.174-.14 4.87 4.87 0 0 0-1.172.14l-.434.106-6.481 1.581a2.016 2.016 0 0 0-.867.436 2.833 2.833 0 0 0-.946 2.11v8.546c0 .374.04.742.097 1.104.016.002.033.003.048.006-.015-.003-.032-.004-.048-.006a7.063 7.063 0 0 0 3.44 5.018l4.597 2.656c.546.315 1.157.47 1.766.47.61 0 1.221-.155 1.768-.47l4.598-2.656a7.062 7.062 0 0 0 3.438-5.018c-.015.002-.033.003-.048.006.015-.003.033-.004.048-.006a7.07 7.07 0 0 0 .096-1.104v-8.546c0-.814-.35-1.579-.945-2.11"/>
        <path fill="#00AC47" d="M31.547 18.887l-4.85 4.849a.86.86 0 0 1-1.212 0l-.417-.417-2.008-2.008a.86.86 0 0 1 0-1.212.861.861 0 0 1 1.214 0l1.817 1.818 4.244-4.242a.85.85 0 0 1 1.01-.135c.07.04.142.076.202.135a.858.858 0 0 1 0 1.212m3.31-5.022a1.72 1.72 0 0 0-.73-.368l-5.468-1.333v-.001l-.365-.088a4.132 4.132 0 0 0-1.98 0l-.365.088-5.468 1.334a1.727 1.727 0 0 0-.732.368 2.386 2.386 0 0 0-.796 1.78v7.208c0 .316.033.627.081.932a5.955 5.955 0 0 0 2.902 4.234l3.878 2.239c.46.266.975.397 1.49.397.514 0 1.029-.131 1.49-.397l3.878-2.239a5.958 5.958 0 0 0 2.902-4.234c.048-.305.08-.616.08-.932v-7.208c0-.686-.295-1.332-.796-1.78"/>
        <path fill="#53DC53" d="M23.06 21.311a.861.861 0 0 1 0-1.213.863.863 0 0 1 1.214 0l1.555 1.557a8.927 8.927 0 0 0 3.264-6.91c0-.893-.134-1.754-.377-2.568l-.057-.013v-.001l-.366-.088a4.126 4.126 0 0 0-1.979 0l-.365.088-5.468 1.334a1.725 1.725 0 0 0-.732.367 2.39 2.39 0 0 0-.796 1.781v7.209c0 .256.024.509.058.759.373.047.75.079 1.136.079 1.53 0 2.97-.386 4.23-1.064l-1.317-1.317z"/>
        <path fill="#FEC100" d="M4.027 8.062l-2.64.841A1.553 1.553 0 0 0 .43 10.88l1.875 4.85a16.456 16.456 0 0 0 5.36-9.732L4.027 8.062z"/>
    </g>
</svg>
